<?xml version="1.0" standalone="no"?><!DOCTYPE svg PUBLIC "-//W3C//DTD SVG 1.1//EN" "http://www.w3.org/Graphics/SVG/1.1/DTD/svg11.dtd"><svg t="1754457629994" class="icon" viewBox="0 0 1024 1024" version="1.1" xmlns="http://www.w3.org/2000/svg" p-id="6509" xmlns:xlink="http://www.w3.org/1999/xlink" width="200" height="200"><path d="M635.0848 211.8656m-85.2992 0a85.2992 85.2992 0 1 0 170.5984 0 85.2992 85.2992 0 1 0-170.5984 0Z" fill="#1C83FA" p-id="6510"></path><path d="M689.0496 317.44a79.36 79.36 0 0 0-40.4992 104.6016l197.2736 446.8224a48.2816 48.2816 0 0 0 44.0832 28.672h28.9792a74.5984 74.5984 0 0 0 58.4192-27.136 72.3968 72.3968 0 0 0 9.728-74.7008L793.6 357.8368A79.3088 79.3088 0 0 0 689.0496 317.44zM490.24 186.1632A79.3088 79.3088 0 0 0 417.4848 138.24H357.2224a79.0528 79.0528 0 0 0-73.3696 49.152L36.7104 787.8656a79.36 79.36 0 0 0 73.216 109.568h399.36a36.5568 36.5568 0 0 0 33.5872-50.944l-36.6592-85.6064a36.5056 36.5056 0 0 0-33.5872-22.1696H228.608L388.5568 350.208l225.28 518.2464a48.128 48.128 0 0 0 44.1856 28.9792h82.176a38.8608 38.8608 0 0 0 35.84-54.4256z" fill="#1C83FA" p-id="6511"></path></svg>